<?xml version="1.0" encoding="utf-8"?>
<svg xmlns="http://www.w3.org/2000/svg" viewBox="141.5923 909.3089 209.0477 266.0608" width="209.048px" height="266.061px" preserveAspectRatio="none"><defs><style>
      .uuid-1708c16f-eae5-461c-afbd-384d84e24355 {
        fill: #fff;
      }

      .uuid-1708c16f-eae5-461c-afbd-384d84e24355, .uuid-01f2d933-8037-49af-8a6f-c38e5c7ccf21 {
        stroke-width: 0px;
      }

      .uuid-01f2d933-8037-49af-8a6f-c38e5c7ccf21 {
        fill: #282828;
      }
    </style></defs><g id="uuid-791f7a0d-ac46-4fa5-ae3c-aa94c68ed427" data-name="logo" style="" transform="matrix(0.9502170085906981, 0, 0, 0.9502170085906981, -324.01401239654433, 187.14399998104568)"><g><polygon class="uuid-01f2d933-8037-49af-8a6f-c38e5c7ccf21" points="710 890.99 710 760 690 760 690 876.89 710 890.99"/><polygon class="uuid-01f2d933-8037-49af-8a6f-c38e5c7ccf21" points="570 965.83 570 1040 590 1040 590 979.92 570 965.83"/><polygon class="uuid-01f2d933-8037-49af-8a6f-c38e5c7ccf21" points="670 862.8 670 760 650 760 650 848.71 670 862.8"/><polygon class="uuid-01f2d933-8037-49af-8a6f-c38e5c7ccf21" points="630 834.62 630 760 610 760 610 820.53 630 834.62"/><polygon class="uuid-01f2d933-8037-49af-8a6f-c38e5c7ccf21" points="530 937.65 530 1040 550 1040 550 951.74 530 937.65"/><polygon class="uuid-01f2d933-8037-49af-8a6f-c38e5c7ccf21" points="490 909.47 490 1040 510 1040 510 923.56 490 909.47"/><polygon class="uuid-01f2d933-8037-49af-8a6f-c38e5c7ccf21" points="570 760 590 760 590 845 570 830 570 760"/><polygon class="uuid-01f2d933-8037-49af-8a6f-c38e5c7ccf21" points="630 1040 610 1040 610 960 630 975 630 1040"/><rect class="uuid-01f2d933-8037-49af-8a6f-c38e5c7ccf21" x="490" y="760" width="20" height="120"/><rect class="uuid-01f2d933-8037-49af-8a6f-c38e5c7ccf21" x="530" y="760" width="20" height="100"/><polygon class="uuid-01f2d933-8037-49af-8a6f-c38e5c7ccf21" points="710 915.45 570 816.53 570 841.36 710 940 710 915.45"/><rect class="uuid-01f2d933-8037-49af-8a6f-c38e5c7ccf21" x="690" y="920" width="20" height="120"/><rect class="uuid-01f2d933-8037-49af-8a6f-c38e5c7ccf21" x="650" y="945" width="20" height="95"/><path class="uuid-01f2d933-8037-49af-8a6f-c38e5c7ccf21" d="m530,838.63v24.55l140,98.64v-24.55l-140-98.64Z"/><polygon class="uuid-01f2d933-8037-49af-8a6f-c38e5c7ccf21" points="490 860 490 885 630 983.64 630 958.92 490 860"/></g></g></svg>