<?xml version="1.0" ?>
<!-- Uploaded to: SVG Repo, www.svgrepo.com, Generator: SVG Repo Mixer Tools -->
<svg fill="#000000" width="800px" height="800px" viewBox="0 0 32 32" enable-background="new 0 0 32 32" id="Layer_3" version="1.1" xml:space="preserve" xmlns="http://www.w3.org/2000/svg" xmlns:xlink="http://www.w3.org/1999/xlink">
<g>
<path d="M28.381,24.805C28.764,24.301,29,23.68,29,23c0-1.654-1.346-3-3-3s-3,1.346-3,3c0,0.68,0.236,1.301,0.619,1.805   C22.642,25.535,22,26.689,22,28v1c0,0.552,0.447,1,1,1s1-0.448,1-1v-1c0-1.103,0.897-2,2-2s2,0.897,2,2v1c0,0.552,0.447,1,1,1   s1-0.448,1-1v-1C30,26.689,29.358,25.535,28.381,24.805z M25,23c0-0.551,0.448-1,1-1s1,0.449,1,1s-0.448,1-1,1S25,23.551,25,23z"/>
<path d="M13,11c0,0.68,0.236,1.301,0.619,1.805C12.642,13.535,12,14.689,12,16v1c0,0.552,0.447,1,1,1h6c0.553,0,1-0.448,1-1v-1   c0-1.311-0.642-2.465-1.619-3.195C18.764,12.301,19,11.68,19,11c0-1.654-1.346-3-3-3S13,9.346,13,11z M14,16c0-1.103,0.897-2,2-2   s2,0.897,2,2H14z M17,11c0,0.551-0.448,1-1,1s-1-0.449-1-1s0.448-1,1-1S17,10.449,17,11z"/>
<path d="M3,30c0.553,0,1-0.448,1-1v-1c0-1.103,0.897-2,2-2s2,0.897,2,2v1c0,0.552,0.447,1,1,1s1-0.448,1-1v-1   c0-1.311-0.642-2.465-1.619-3.195C8.764,24.301,9,23.68,9,23c0-1.654-1.346-3-3-3s-3,1.346-3,3c0,0.68,0.236,1.301,0.619,1.805   C2.642,25.535,2,26.689,2,28v1C2,29.552,2.447,30,3,30z M5,23c0-0.551,0.448-1,1-1s1,0.449,1,1s-0.448,1-1,1S5,23.551,5,23z"/>
<path d="M16,2c-0.553,0-1,0.448-1,1v1.059C10.835,4.522,7.522,7.836,7.059,12H6c-0.553,0-1,0.448-1,1s0.447,1,1,1h1.059   c0.463,4.164,3.776,7.478,7.941,7.941V23c0,0.552,0.447,1,1,1s1-0.448,1-1v-1.059c4.165-0.463,7.478-3.777,7.941-7.941H26   c0.553,0,1-0.448,1-1s-0.447-1-1-1h-1.059C24.478,7.836,21.165,4.522,17,4.059V3C17,2.448,16.553,2,16,2z M23,13   c0,3.86-3.141,7-7,7s-7-3.14-7-7s3.141-7,7-7S23,9.14,23,13z"/>
</g>
</svg>